<svg width="22" height="21" viewBox="0 0 22 21" fill="none" xmlns="http://www.w3.org/2000/svg">
<path d="M4.86886 6.65465V20.48H0.265067V6.65465H4.86886ZM5.16183 2.38567C5.17113 3.06462 4.93629 3.63195 4.45731 4.08768C3.97833 4.54341 3.34821 4.77128 2.56696 4.77128H2.53906C1.77641 4.77128 1.16257 4.54341 0.697545 4.08768C0.232515 3.63195 0 3.06462 0 2.38567C0 1.69743 0.23949 1.12777 0.718471 0.676689C1.19745 0.225609 1.82292 7.05719e-05 2.59487 7.05719e-05C3.36682 7.05719e-05 3.98531 0.225609 4.45033 0.676689C4.91536 1.12777 5.15253 1.69743 5.16183 2.38567ZM21.4286 12.5559V20.48H16.8387V13.086C16.8387 12.1094 16.6504 11.3445 16.2737 10.7911C15.897 10.2377 15.3088 9.96101 14.5089 9.96101C13.923 9.96101 13.4324 10.1214 13.0371 10.4423C12.6418 10.7632 12.3465 11.1608 12.1512 11.6351C12.0489 11.9141 11.9978 12.2908 11.9978 12.7651V20.48H7.40792C7.42653 16.769 7.43583 13.7603 7.43583 11.4538C7.43583 9.14721 7.43118 7.77072 7.42188 7.32429L7.40792 6.65465H11.9978V8.66357H11.9699C12.1559 8.36596 12.3465 8.10554 12.5419 7.88232C12.7372 7.65911 12.9999 7.41729 13.3301 7.15688C13.6602 6.89646 14.0648 6.69417 14.5438 6.55001C15.0228 6.40586 15.5552 6.33378 16.1412 6.33378C17.7316 6.33378 19.0104 6.86158 19.9777 7.9172C20.9449 8.97282 21.4286 10.519 21.4286 12.5559Z" fill="#F8F9FA"/>
</svg>
