<svg width="21" height="21" viewBox="0 0 21 21" fill="none" xmlns="http://www.w3.org/2000/svg">
<path d="M9.06665 0.0912991C7.91821 0.264736 6.94321 0.574111 5.87915 1.09911C4.6979 1.68036 3.84008 2.29911 2.92133 3.2413C1.42602 4.76474 0.502583 6.55067 0.127583 8.62255C-0.0130423 9.40067 -0.0411673 10.9616 0.0619577 11.8054C0.249458 13.2632 0.718208 14.6272 1.45883 15.8694C1.72133 16.31 1.82446 16.4366 1.82446 16.31C1.82446 16.2772 2.23227 15.9491 2.37758 15.86C2.38696 15.8554 2.31665 15.7288 2.21821 15.5835C1.92758 15.1288 1.46352 14.1163 1.26665 13.5116C1.05571 12.8694 0.915083 12.2413 0.835395 11.5569C0.755708 10.8866 0.80727 9.43817 0.929145 8.78661C1.73071 4.52567 5.13383 1.34286 9.43696 0.836611C10.0323 0.766298 11.5041 0.808486 12.0666 0.906923C13.3463 1.1413 14.5088 1.57255 15.5401 2.20536C15.7088 2.30849 15.8541 2.38817 15.8588 2.3788C15.9432 2.23349 16.276 1.82567 16.3088 1.82567C16.4307 1.82567 16.3182 1.73192 15.9245 1.48817C14.6635 0.724111 13.3323 0.245985 11.9729 0.0678616C11.2135 -0.0305767 9.7979 -0.0212021 9.06665 0.0912991Z" fill="#FF6820"/>
<path d="M17.2838 2.07387C16.5198 2.28949 16.1166 3.13324 16.426 3.87387C16.5291 4.11762 16.8526 4.43168 17.1198 4.54418C17.4151 4.67074 17.8885 4.68481 18.1557 4.57231C18.6338 4.37074 18.9807 3.86918 18.9807 3.37231C18.9807 3.22699 18.9479 3.01137 18.9057 2.89418C18.6948 2.27074 17.9401 1.89106 17.2838 2.07387Z" fill="#FF6820"/>
<path d="M10.1963 2.6691C8.84165 2.89879 7.6979 4.97066 7.26665 7.98941C7.16821 8.67379 7.07446 9.63004 7.07446 9.96754V10.1691H10.4963H13.9182V9.96754C13.9182 9.63004 13.8245 8.67379 13.726 7.98941C13.3323 5.22379 12.3432 3.24566 11.1292 2.77222C10.8338 2.65972 10.4917 2.62222 10.1963 2.6691Z" fill="#FF6820"/>
<path d="M7.95574 3.0441C5.99167 3.70035 4.38386 5.10191 3.46511 6.95816C2.98699 7.9191 2.73386 8.80035 2.64011 9.80347L2.6073 10.1691H4.49167H6.37136V9.85035C6.37136 9.67691 6.3948 9.28316 6.42292 8.97379C6.62918 6.54566 7.29949 4.49722 8.3073 3.1941C8.43386 3.03004 8.52761 2.88941 8.51824 2.88004C8.50886 2.87066 8.25574 2.94097 7.95574 3.0441Z" fill="#FF6820"/>
<path d="M12.4651 2.88472C12.4651 2.89879 12.5542 3.01597 12.6573 3.15191C13.6698 4.4316 14.3635 6.53629 14.5698 8.97379C14.5979 9.28316 14.6213 9.67691 14.6213 9.85035V10.1691H16.501H18.3854L18.3526 9.80347C18.2588 8.80035 18.0057 7.9191 17.5276 6.95816C16.5667 5.02222 14.8088 3.54566 12.7604 2.95035C12.5963 2.90347 12.4651 2.87066 12.4651 2.88472Z" fill="#FF6820"/>
<path d="M19.1214 4.75504C19.0417 4.83941 18.7557 5.05503 18.6151 5.13472C18.6057 5.13941 18.6948 5.29879 18.812 5.49566C19.3698 6.40972 19.8104 7.54879 20.0401 8.6691C20.162 9.25972 20.1714 9.3816 20.1714 10.4972C20.176 11.7488 20.1526 11.9878 19.9417 12.8457C19.7776 13.5019 19.6135 13.966 19.3089 14.5988C18.8026 15.6675 18.2776 16.4082 17.4151 17.2753C16.2807 18.4144 15.0057 19.2019 13.4776 19.7082C10.7448 20.6222 7.88541 20.3035 5.51354 18.8363C5.30729 18.705 5.13854 18.6113 5.13385 18.616C5.02604 18.7988 4.9276 18.93 4.80104 19.0707L4.64166 19.2441L5.07291 19.5066C6.74166 20.5191 8.47604 20.9972 10.4964 20.9972C12.2073 20.9972 13.5807 20.6878 15.076 19.966C18.1276 18.4988 20.237 15.7144 20.8604 12.3253C21.001 11.5472 21.0385 10.0378 20.9307 9.1941C20.7526 7.82535 20.312 6.48472 19.6604 5.34097C19.5198 5.09722 19.3651 4.83941 19.3182 4.76441L19.2339 4.63785L19.1214 4.75504Z" fill="#FF6820"/>
<path d="M2.62134 10.9938C2.62134 11.0641 2.65415 11.3407 2.69165 11.6172C3.09009 14.3547 4.85259 16.6563 7.37915 17.7391C7.81978 17.9266 8.4854 18.1469 8.51821 18.1188C8.52759 18.1047 8.43384 17.9641 8.30728 17.8001C7.50571 16.7688 6.91978 15.2688 6.60571 13.4688C6.4979 12.836 6.37134 11.6126 6.37134 11.1672V10.8719H4.49634H2.62134V10.9938Z" fill="#FF6820"/>
<path d="M7.07446 11.0922C7.07446 11.4063 7.19634 12.5781 7.2854 13.1688C7.60415 15.2922 8.3354 17.036 9.24009 17.8281C9.8729 18.386 10.5854 18.4985 11.2885 18.1516C11.5932 18.0063 12.137 17.4813 12.3901 17.0922C13.0182 16.1313 13.4823 14.7063 13.726 13.0047C13.8245 12.3391 13.9182 11.3688 13.9182 11.0453V10.8719H10.4963H7.07446V11.0922Z" fill="#FF6820"/>
<path d="M14.621 11.1675C14.621 11.9175 14.4475 13.2488 14.2178 14.2941C13.9366 15.5457 13.3553 16.9191 12.7694 17.6925C12.6006 17.9175 12.4694 18.1144 12.4835 18.1238C12.5256 18.166 13.5288 17.7957 13.9881 17.566C16.3319 16.3988 17.921 14.2097 18.3006 11.6175C18.3381 11.341 18.371 11.0644 18.371 10.9941V10.8722H16.496H14.621V11.1675Z" fill="#FF6820"/>
<path d="M2.87007 16.4174C2.02632 16.7314 1.74038 17.8236 2.32163 18.508C2.93101 19.2205 4.09351 19.0845 4.52007 18.2549C4.63726 18.0205 4.6607 17.9314 4.65601 17.6502C4.65132 17.2564 4.57163 17.0502 4.32319 16.7783C4.06538 16.4877 3.75601 16.3564 3.34819 16.3611C3.17007 16.3611 2.95444 16.3892 2.87007 16.4174Z" fill="#FF6820"/>
</svg>
