<svg width="24" height="24" viewBox="0 0 24 24" fill="none" xmlns="http://www.w3.org/2000/svg">
<path d="M12 0C10.0109 0 8.10322 0.758569 6.6967 2.10883C5.29018 3.45909 4.5 5.29044 4.5 7.2C4.5 12.272 11.1667 18.696 11.4083 18.968C11.5645 19.117 11.7757 19.2006 11.9958 19.2006C12.216 19.2006 12.4272 19.117 12.5833 18.968C12.8333 18.696 19.5 12.272 19.5 7.2C19.5 5.29044 18.7098 3.45909 17.3033 2.10883C15.8968 0.758569 13.9891 0 12 0ZM12 9.6C11.5055 9.6 11.0222 9.45924 10.6111 9.19553C10.2 8.93181 9.87952 8.55698 9.6903 8.11844C9.50108 7.6799 9.45157 7.19734 9.54804 6.73178C9.6445 6.26623 9.8826 5.83859 10.2322 5.50294C10.5819 5.1673 11.0273 4.93872 11.5123 4.84612C11.9972 4.75351 12.4999 4.80104 12.9567 4.98269C13.4135 5.16434 13.804 5.47195 14.0787 5.86663C14.3534 6.26131 14.5 6.72532 14.5 7.2C14.5 7.83652 14.2366 8.44697 13.7678 8.89706C13.2989 9.34714 12.663 9.6 12 9.6Z" fill="#FF6820"/>
<path d="M11.9987 20C9.9237 20 7.83203 20.616 7.83203 22C7.83203 23.384 9.9237 24 11.9987 24C14.0737 24 16.1654 23.384 16.1654 22C16.1654 20.616 14.0737 20 11.9987 20Z" fill="#FF6820"/>
</svg>
