<svg width="35" height="35" viewBox="0 0 35 35" fill="none" xmlns="http://www.w3.org/2000/svg">
<rect width="35" height="35" rx="17.5" fill="#FF6820"/>
<path d="M27.391 22.687C27.391 22.948 27.3442 23.2888 27.2505 23.7093C27.1568 24.1298 27.0585 24.4609 26.9555 24.7026C26.7587 25.1859 26.1874 25.6983 25.2413 26.2396C24.3609 26.7327 23.4897 26.9792 22.628 26.9792C22.3751 26.9792 22.1269 26.9622 21.8833 26.9284C21.6398 26.8946 21.3705 26.8342 21.0755 26.7472C20.7804 26.6602 20.5603 26.5901 20.4151 26.5369C20.2699 26.4837 20.01 26.3846 19.6353 26.2396C19.2607 26.0946 19.0312 26.0076 18.9469 25.9786C18.0289 25.6403 17.2093 25.2391 16.4881 24.7751C15.2985 24.0114 14.0621 22.9674 12.7789 21.643C11.4956 20.3186 10.484 19.0426 9.74402 17.8149C9.29442 17.0705 8.9057 16.2246 8.57786 15.2773C8.54976 15.1903 8.46546 14.9534 8.32496 14.5668C8.18445 14.1801 8.08845 13.9118 8.03693 13.762C7.98541 13.6121 7.9175 13.385 7.8332 13.0805C7.7489 12.776 7.69036 12.498 7.65757 12.2467C7.62479 11.9953 7.6084 11.7392 7.6084 11.4782C7.6084 10.5888 7.84725 9.68977 8.32496 8.78107C8.84949 7.80471 9.34593 7.21502 9.81427 7.01201C10.0484 6.90568 10.3693 6.80417 10.7767 6.7075C11.1842 6.61083 11.5143 6.5625 11.7672 6.5625C11.8984 6.5625 11.9967 6.577 12.0623 6.606C12.2309 6.664 12.4791 7.03135 12.807 7.70804C12.91 7.89171 13.0505 8.15272 13.2285 8.49106C13.4064 8.82941 13.5703 9.13633 13.7202 9.41184C13.8701 9.68735 14.0153 9.94594 14.1558 10.1876C14.1839 10.2263 14.2658 10.3471 14.4016 10.5501C14.5375 10.7531 14.6382 10.9247 14.7037 11.0649C14.7693 11.2051 14.8021 11.3428 14.8021 11.4782C14.8021 11.6715 14.6686 11.9132 14.4016 12.2032C14.1347 12.4932 13.8443 12.759 13.5305 13.0007C13.2167 13.2424 12.9264 13.4986 12.6594 13.7692C12.3925 14.0399 12.259 14.2623 12.259 14.4363C12.259 14.5233 12.2824 14.632 12.3292 14.7625C12.3761 14.893 12.4159 14.9921 12.4487 15.0598C12.4815 15.1274 12.547 15.2434 12.6454 15.4078C12.7437 15.5721 12.7976 15.664 12.807 15.6833C13.5188 17.0077 14.3337 18.1435 15.2517 19.0909C16.1696 20.0383 17.2702 20.8793 18.5535 21.614C18.5722 21.6237 18.6612 21.6792 18.8204 21.7807C18.9797 21.8822 19.0921 21.9499 19.1576 21.9838C19.2232 22.0176 19.3192 22.0587 19.4456 22.107C19.5721 22.1553 19.6775 22.1795 19.7618 22.1795C19.9304 22.1795 20.1458 22.0418 20.4081 21.7662C20.6704 21.4907 20.9186 21.1911 21.1527 20.8672C21.3869 20.5434 21.6445 20.2437 21.9255 19.9682C22.2065 19.6927 22.4407 19.5549 22.628 19.5549C22.7591 19.5549 22.8926 19.5888 23.0284 19.6564C23.1643 19.7241 23.3305 19.828 23.5272 19.9682C23.7239 20.1084 23.841 20.1929 23.8785 20.2219C24.1126 20.367 24.3632 20.5168 24.6302 20.6715C24.8971 20.8261 25.1945 20.9953 25.5223 21.179C25.8502 21.3626 26.1031 21.5077 26.281 21.614C26.9367 21.9523 27.2927 22.2085 27.3489 22.3825C27.377 22.4502 27.391 22.5517 27.391 22.687Z" fill="white"/>
</svg>
