<svg width="28" height="39" viewBox="0 0 28 39" fill="none" xmlns="http://www.w3.org/2000/svg">
<path d="M9.76562 0.148441C9.38281 0.328129 8.99219 0.726566 8.83594 1.10938C8.76562 1.28125 8.71094 1.63282 8.71094 1.94532V2.49219L5.45312 2.51563L2.1875 2.53907L1.71875 2.76563C1.11719 3.0625 0.523438 3.65625 0.226562 4.25782L0 4.72657V20.625V36.5234L0.226562 36.9922C0.523438 37.5938 1.11719 38.1875 1.71875 38.4844L2.1875 38.7109H13.7109H25.2344L25.7031 38.4844C26.3047 38.1875 26.8984 37.5938 27.1953 36.9922L27.4219 36.5234V20.625V4.72657L27.1953 4.25782C26.8984 3.65625 26.3047 3.0625 25.7031 2.76563L25.2344 2.53907L21.9766 2.51563L18.7109 2.49219V1.94532C18.7109 1.3125 18.5781 0.929691 18.2188 0.554691C17.6875 -0.00780869 17.7656 3.8147e-06 13.7109 3.8147e-06C10.3359 3.8147e-06 10.0547 0.0156288 9.76562 0.148441ZM17.0234 1.35938C17.3906 1.51563 17.4609 1.78125 17.4609 3.125C17.4609 4.46875 17.3906 4.73438 17.0234 4.89063C16.6406 5.04688 10.7812 5.04688 10.3984 4.89063C10.0312 4.73438 9.96094 4.46875 9.96094 3.125C9.96094 1.80469 10.0312 1.51563 10.3828 1.35938C10.7422 1.20313 16.6484 1.20313 17.0234 1.35938ZM8.71094 4.3125C8.71094 4.97657 8.86719 5.38282 9.26562 5.75782C9.78906 6.25782 9.74219 6.25 13.7266 6.25C17.7578 6.25 17.6875 6.25782 18.2188 5.69532C18.5781 5.3125 18.7109 4.9375 18.7109 4.29688V3.74219L21.7422 3.76563C24.6641 3.78907 24.7734 3.79688 25.0781 3.95313C25.5078 4.1875 25.8125 4.5 26.0078 4.92188L26.1719 5.27344V20.5859C26.1719 33.4141 26.1562 35.9453 26.0625 36.2031C25.9141 36.6406 25.4062 37.1563 24.9766 37.3203C24.6328 37.4531 24.0234 37.4609 13.6719 37.4609H2.73438L2.38281 37.2969C1.9375 37.0859 1.625 36.7734 1.41406 36.3281L1.25 35.9766V20.625V5.27344L1.41406 4.92188C1.69531 4.32032 2.19531 3.92969 2.8125 3.82032C2.98438 3.79688 4.38281 3.76563 5.92188 3.75782L8.71094 3.75V4.3125Z" fill="#046A38"/>
<path d="M11.9531 8.23438C11.5547 8.40625 11.1953 8.76563 11.0078 9.17969C10.8359 9.53907 10.8203 9.67188 10.8203 10.8359V12.1094H9.55469C8.38281 12.1094 8.25 12.125 7.89062 12.2969C7.46875 12.4922 7.10938 12.8516 6.9375 13.2578C6.78906 13.6172 6.78906 16.3828 6.9375 16.7422C7.10938 17.1484 7.46875 17.5078 7.89062 17.7031C8.25 17.875 8.38281 17.8906 9.55469 17.8906H10.8203V19.1563C10.8203 20.3281 10.8359 20.4609 11.0078 20.8203C11.2031 21.2422 11.5625 21.6016 11.9688 21.7734C12.3281 21.9219 15.0938 21.9219 15.4531 21.7734C15.8594 21.6016 16.2188 21.2422 16.4141 20.8203C16.5859 20.4609 16.6016 20.3281 16.6016 19.1563V17.8906H17.875C19.0391 17.8906 19.1719 17.875 19.5312 17.7031C19.9531 17.5078 20.3125 17.1484 20.4844 16.7422C20.5547 16.5625 20.5859 16.0703 20.5859 15C20.5859 13.9297 20.5547 13.4375 20.4844 13.2578C20.3125 12.8516 19.9531 12.4922 19.5312 12.2969C19.1719 12.125 19.0391 12.1094 17.875 12.1094H16.6016V10.8359C16.6016 9.67188 16.5859 9.53907 16.4141 9.17969C16.2188 8.75782 15.8594 8.39844 15.4531 8.22657C15.1016 8.08594 12.2891 8.08594 11.9531 8.23438ZM14.8516 9.45313C15.25 9.60938 15.2656 9.67969 15.2734 11.3906V12.9844L15.5 13.2109L15.7266 13.4375H17.3203H18.9219L19.1094 13.6406C19.2734 13.8203 19.2969 13.9219 19.3203 14.6953C19.3594 15.7578 19.2969 16.2109 19.0781 16.4063C18.9297 16.5547 18.8047 16.5625 17.3203 16.5625H15.7266L15.5 16.7891L15.2734 17.0156V18.6094V20.2109L15.0703 20.3984C14.875 20.5781 14.8281 20.5859 13.7109 20.5859C12.5938 20.5859 12.5469 20.5781 12.3516 20.3984L12.1484 20.2109V18.6094V17.0156L11.9219 16.7891L11.6953 16.5625H10.1016H8.5L8.3125 16.3594C8.13281 16.1641 8.125 16.1172 8.125 15C8.125 13.8828 8.13281 13.8359 8.3125 13.6406L8.5 13.4375H10.1016H11.6953L11.9219 13.2109L12.1484 12.9844V11.3906C12.1484 9.83594 12.1562 9.78907 12.3281 9.63282C12.4219 9.54688 12.5547 9.45313 12.6172 9.42969C12.8281 9.35157 14.6328 9.375 14.8516 9.45313Z" fill="#046A38"/>
<path d="M4.14062 23.2734C3.96875 23.3516 3.71875 23.5391 3.57812 23.6797C3.15625 24.1328 3.08594 24.3984 3.08594 25.6406C3.08594 26.8984 3.17188 27.1797 3.64062 27.6328C4.09375 28.0547 4.35938 28.125 5.60156 28.125C6.85938 28.125 7.14062 28.0391 7.59375 27.5703C8.01562 27.125 8.08594 26.8516 8.08594 25.625C8.08594 24.3984 8.01562 24.125 7.59375 23.6797C7.14062 23.2031 6.85938 23.125 5.58594 23.125C4.64844 23.125 4.39844 23.1563 4.14062 23.2734ZM6.39844 24.4844C6.72656 24.6172 6.83594 24.9141 6.83594 25.625C6.83594 26.6406 6.60156 26.875 5.60156 26.875C4.57031 26.875 4.33594 26.6484 4.33594 25.6406C4.33594 24.9297 4.44531 24.6172 4.75781 24.4844C5.07812 24.3516 6.07031 24.3438 6.39844 24.4844Z" fill="#046A38"/>
<path d="M10.1172 25.1563C10.0156 25.2578 9.96094 25.4141 9.96094 25.625C9.96094 25.8359 10.0156 25.9922 10.1172 26.0938C10.2734 26.25 10.375 26.25 17.1484 26.25C23.9219 26.25 24.0234 26.25 24.1797 26.0938C24.2812 25.9922 24.3359 25.8359 24.3359 25.625C24.3359 25.4141 24.2812 25.2578 24.1797 25.1563C24.0234 25 23.9219 25 17.1484 25C10.375 25 10.2734 25 10.1172 25.1563Z" fill="#046A38"/>
<path d="M4.14062 30.1484C3.96875 30.2266 3.71875 30.4141 3.57812 30.5547C3.15625 31.0078 3.08594 31.2734 3.08594 32.5156C3.08594 33.7734 3.17188 34.0547 3.64062 34.5078C4.09375 34.9297 4.35938 35 5.60156 35C6.85938 35 7.14062 34.9141 7.59375 34.4453C8.01562 34 8.08594 33.7266 8.08594 32.5C8.08594 31.2734 8.01562 31 7.59375 30.5547C7.14062 30.0781 6.85938 30 5.58594 30C4.64844 30 4.39844 30.0313 4.14062 30.1484ZM6.39844 31.3594C6.72656 31.4922 6.83594 31.7891 6.83594 32.5C6.83594 33.5156 6.60156 33.75 5.60156 33.75C4.57031 33.75 4.33594 33.5234 4.33594 32.5156C4.33594 31.8047 4.44531 31.4922 4.75781 31.3594C5.07812 31.2266 6.07031 31.2188 6.39844 31.3594Z" fill="#046A38"/>
<path d="M10.1172 32.0313C10.0156 32.1328 9.96094 32.2891 9.96094 32.5C9.96094 32.7109 10.0156 32.8672 10.1172 32.9688C10.2734 33.125 10.375 33.125 17.1484 33.125C23.9219 33.125 24.0234 33.125 24.1797 32.9688C24.2812 32.8672 24.3359 32.7109 24.3359 32.5C24.3359 32.2891 24.2812 32.1328 24.1797 32.0313C24.0234 31.875 23.9219 31.875 17.1484 31.875C10.375 31.875 10.2734 31.875 10.1172 32.0313Z" fill="#046A38"/>
</svg>
