<svg width="40" height="40" viewBox="0 0 40 40" fill="none" xmlns="http://www.w3.org/2000/svg">
<g clip-path="url(#clip0_1193_150)">
<path d="M13.0234 0.11718C11.7344 0.468742 10.5547 1.60155 10.1875 2.8203L10.0469 3.28124H8.69531C6.83594 3.28124 6.64062 3.39062 6.64062 4.42968V4.99999H5.0625C3.99219 4.99999 3.35156 5.03905 3.08594 5.10937C1.66406 5.48437 0.484375 6.66405 0.109375 8.08593C-0.046875 8.66405 -0.046875 31.3359 0.109375 31.9141C0.390625 32.9922 1.28125 34.1094 2.22656 34.5625C3.14844 35.0078 2.94531 35 9.85156 35H16.2188L16.4375 34.7812C16.7031 34.4922 16.7734 34.0859 16.6094 33.7656C16.3516 33.2578 16.6484 33.2812 9.89062 33.2812C3.80469 33.2812 3.75 33.2812 3.30469 33.1094C2.70312 32.8828 2.11719 32.2969 1.89062 31.6953L1.71875 31.2422V20V8.7578L1.89062 8.30468C2.11719 7.70312 2.70312 7.11718 3.30469 6.89062C3.70312 6.73437 3.91406 6.71874 5.1875 6.71874H6.625L6.65625 7.47655C6.69531 8.39843 6.89062 8.85155 7.48438 9.3828C8.20312 10.0312 7.91406 9.99999 14.1406 9.99999C17.5 9.99999 19.7578 9.96874 19.9219 9.92187C21 9.62499 21.7188 8.54687 21.7188 7.24218V6.71874H23.1484C24.7734 6.71874 25.0312 6.77343 25.6641 7.24999C25.9453 7.46093 26.1328 7.68749 26.3281 8.07812L26.6016 8.61718L26.6406 14.0547C26.6797 19.7656 26.6797 19.7344 27.0312 19.9219C27.2188 20.0234 27.7812 20.0234 27.9766 19.9219C28.3594 19.7109 28.3594 19.7656 28.3594 14.0312C28.3594 10.4687 28.3281 8.53905 28.2734 8.26562C28.0469 7.17187 27.1797 6.0078 26.2109 5.49218C25.3672 5.05468 25.0547 4.99999 23.3047 4.99999H21.7188V4.49218C21.7188 4.18749 21.6719 3.8828 21.6016 3.74999C21.3828 3.33593 21.1719 3.28124 19.6562 3.28124H18.2891L18.1953 2.9453C17.8594 1.67968 16.6797 0.52343 15.3203 0.124992C14.8047 -0.0234451 13.5625 -0.0312576 13.0234 0.11718ZM14.9297 1.83593C15.7734 2.12499 16.4844 2.99999 16.6016 3.8828C16.6797 4.5078 16.7188 4.61718 16.9141 4.81249C17.1016 4.99999 17.125 4.99999 18.5547 4.99999H20V6.18749C20 7.52343 19.9297 7.89062 19.6328 8.12499C19.4375 8.28124 19.3516 8.28124 14.1719 8.28124H8.90625L8.65625 8.05468L8.39844 7.82812L8.375 6.41405L8.35156 4.99999H9.78125H11.2188L11.4375 4.77343C11.6094 4.59374 11.6641 4.43749 11.7188 4.03124C11.8438 3.02343 12.4453 2.21093 13.3125 1.8828C13.7969 1.6953 14.4609 1.67968 14.9297 1.83593Z" fill="#046A38"/>
<path d="M5.54688 13.3359C5.48438 13.3594 5.33594 13.4688 5.21875 13.5781C5.03906 13.7422 5 13.8438 5 14.1641C5 14.4766 5.03906 14.5781 5.22656 14.7734L5.45312 15H14.1406C19.9453 15 22.875 14.9766 22.9766 14.9219C23.3203 14.7344 23.4766 14.0313 23.2344 13.6875C22.9375 13.2656 23.3672 13.2813 14.1641 13.2891C9.49219 13.2891 5.60938 13.3125 5.54688 13.3359Z" fill="#046A38"/>
<path d="M5.54688 18.3359C5.48438 18.3594 5.33594 18.4688 5.21875 18.5781C5.03906 18.7422 5 18.8438 5 19.1641C5 19.4766 5.03906 19.5781 5.22656 19.7734L5.45312 20H14.1406C19.9453 20 22.875 19.9766 22.9766 19.9219C23.3203 19.7344 23.4766 19.0313 23.2344 18.6875C22.9375 18.2656 23.3672 18.2813 14.1641 18.2891C9.49219 18.2891 5.60938 18.3125 5.54688 18.3359Z" fill="#046A38"/>
<path d="M34.1406 19.1562C33.7422 19.3047 33.2266 19.7969 26.9453 26.0859L20.1797 32.8516L19.5781 35.8594C19.25 37.5156 18.9844 39.0156 18.9844 39.2031C18.9844 39.6797 19.3047 40 19.7812 40C19.9688 40 21.4688 39.7344 23.125 39.4062L26.1328 38.8047L32.8281 32.125C37.7109 27.2422 39.5781 25.3359 39.7344 25.0469C40.0234 24.5234 40.0859 23.5859 39.8828 22.9609C39.7578 22.5781 39.5938 22.3828 38.0938 20.8984C36.6719 19.4766 36.3906 19.2344 36.0547 19.1172C35.5156 18.9375 34.6875 18.9531 34.1406 19.1562ZM36.8672 22.1406L38.3047 23.5781L38.2578 23.9141C38.2188 24.2344 37.9609 24.5 31.7422 30.7188L25.2734 37.1875L23.1328 37.6172C21.9531 37.8516 20.9766 38.0391 20.9688 38.0234C20.9609 38.0156 21.1406 37.0391 21.3828 35.8594L21.8047 33.7109L28.1484 27.3594C31.6406 23.8594 34.6016 20.9297 34.7266 20.8516C35.2266 20.5312 35.2969 20.5781 36.8672 22.1406Z" fill="#046A38"/>
<path d="M5.54688 23.3359C5.48438 23.3594 5.33594 23.4688 5.21875 23.5781C5.03906 23.7422 5 23.8438 5 24.1641C5 24.4766 5.03906 24.5781 5.22656 24.7734L5.45312 25H14.1406C19.9453 25 22.875 24.9766 22.9766 24.9219C23.3203 24.7344 23.4766 24.0313 23.2344 23.6875C22.9375 23.2656 23.3672 23.2813 14.1641 23.2891C9.49219 23.2891 5.60938 23.3125 5.54688 23.3359Z" fill="#046A38"/>
</g>
<defs>
<clipPath id="clip0_1193_150">
<rect width="40" height="40" fill="white"/>
</clipPath>
</defs>
</svg>
