<svg width="25" height="18" viewBox="0 0 25 18" fill="none" xmlns="http://www.w3.org/2000/svg">
<path d="M9.91978 12.0257L16.672 8.53795L9.91978 5.00837V12.0257ZM12.5007 0C14.0632 0 15.5722 0.0209274 17.0278 0.0627785C18.4833 0.104631 19.5505 0.148809 20.2295 0.195312L21.2479 0.251116C21.2572 0.251116 21.3363 0.258091 21.4851 0.272043C21.6339 0.285994 21.7408 0.299944 21.8059 0.313896C21.871 0.327847 21.9803 0.348772 22.1338 0.376675C22.2872 0.404575 22.4198 0.441778 22.5314 0.488281C22.643 0.534784 22.7732 0.595238 22.922 0.669643C23.0708 0.744047 23.215 0.834728 23.3545 0.941685C23.494 1.04864 23.6289 1.17188 23.7591 1.31138C23.8149 1.36719 23.887 1.45322 23.9753 1.56948C24.0637 1.68573 24.1985 1.95778 24.3799 2.3856C24.5612 2.81343 24.6845 3.28311 24.7496 3.79464C24.824 4.38988 24.8821 5.02465 24.924 5.69894C24.9658 6.37323 24.9914 6.90104 25.0007 7.28237V7.8404V9.73772C25.01 11.0863 24.9263 12.4349 24.7496 13.7835C24.6845 14.295 24.5682 14.7577 24.4008 15.1716C24.2334 15.5855 24.0846 15.8715 23.9544 16.0296L23.7591 16.2667C23.6289 16.4062 23.494 16.5295 23.3545 16.6364C23.215 16.7434 23.0708 16.8318 22.922 16.9015C22.7732 16.9713 22.643 17.0294 22.5314 17.0759C22.4198 17.1224 22.2872 17.1596 22.1338 17.1875C21.9803 17.2154 21.8687 17.2363 21.799 17.2503C21.7292 17.2642 21.6223 17.2782 21.4781 17.2921C21.3339 17.3061 21.2572 17.3131 21.2479 17.3131C18.9135 17.4898 15.9977 17.5781 12.5007 17.5781C10.5755 17.5595 8.90369 17.5293 7.48535 17.4874C6.06701 17.4456 5.13463 17.4107 4.6882 17.3828L4.0046 17.327L3.50237 17.2712C3.16755 17.2247 2.91411 17.1782 2.74205 17.1317C2.56999 17.0852 2.33282 16.9875 2.03055 16.8387C1.72828 16.6899 1.46554 16.4993 1.24233 16.2667C1.18652 16.2109 1.11444 16.1249 1.02609 16.0086C0.937733 15.8924 0.802874 15.6203 0.621512 15.1925C0.440151 14.7647 0.316918 14.295 0.251814 13.7835C0.177409 13.1882 0.11928 12.5535 0.0774275 11.8792C0.0355748 11.2049 0.00999814 10.6771 0.000697545 10.2958V9.73772V7.8404C-0.00860305 6.49182 0.0751023 5.14323 0.251814 3.79464C0.316918 3.28311 0.433175 2.82041 0.600586 2.40653C0.767997 1.99265 0.916806 1.70666 1.04701 1.54855L1.24233 1.31138C1.37254 1.17188 1.50739 1.04864 1.6469 0.941685C1.78641 0.834728 1.93057 0.744047 2.07938 0.669643C2.22819 0.595238 2.3584 0.534784 2.47001 0.488281C2.58161 0.441778 2.71415 0.404575 2.86761 0.376675C3.02107 0.348772 3.13035 0.327847 3.19545 0.313896C3.26056 0.299944 3.36751 0.285994 3.51632 0.272043C3.66513 0.258091 3.74419 0.251116 3.75349 0.251116C6.08794 0.0837059 9.00367 0 12.5007 0Z" fill="#F8F9FA"/>
</svg>
